<svg width="148" height="32" viewBox="0 0 148 32" fill="none" xmlns="http://www.w3.org/2000/svg">
<path d="M3 29.5C2.175 29.5 1.46875 29.2062 0.88125 28.6187C0.29375 28.0312 0 27.325 0 26.5V5.5C0 4.675 0.29375 3.96875 0.88125 3.38125C1.46875 2.79375 2.175 2.5 3 2.5H24C24.825 2.5 25.5312 2.79375 26.1187 3.38125C26.7062 3.96875 27 4.675 27 5.5V26.5C27 27.325 26.7062 28.0312 26.1187 28.6187C25.5312 29.2062 24.825 29.5 24 29.5H3V29.5M15 17.5V26.5H24V26.5V26.5V17.5H15V17.5M15 14.5H24V5.5V5.5V5.5H15V14.5V14.5M12 14.5V5.5H3V5.5V5.5V14.5H12V14.5M12 17.5H3V26.5V26.5V26.5H12V17.5V17.5" fill="#FAFAFA"/>
<path d="M36.5778 25V7.53906H42.0708L44.897 15.5549C45.0154 15.9267 45.1507 16.4103 45.3028 17.0059C45.4549 17.6014 45.6096 18.2429 45.7668 18.9301C45.9239 19.6174 46.071 20.2848 46.2081 20.9323C46.3451 21.5798 46.4581 22.1435 46.547 22.6234H45.846C45.9385 22.1543 46.0522 21.5978 46.1871 20.9539C46.322 20.31 46.4681 19.6435 46.6253 18.9544C46.7824 18.2653 46.9369 17.6203 47.0887 17.0193C47.2405 16.4184 47.3756 15.9303 47.4941 15.5549L50.2807 7.53906H55.7854V25H52.1954V16.7677C52.1954 16.3872 52.2015 15.9127 52.2139 15.3442C52.2262 14.7757 52.2414 14.1616 52.2595 13.5019C52.2775 12.8422 52.2945 12.1768 52.3105 11.5057C52.3264 10.8346 52.3362 10.2044 52.3398 9.61518H52.5716C52.4202 10.2639 52.2537 10.933 52.0722 11.6224C51.8907 12.3118 51.7089 12.9816 51.5268 13.632C51.3447 14.2823 51.1713 14.8782 51.0066 15.4197C50.8419 15.9612 50.7007 16.4105 50.5829 16.7677L47.6931 25H44.6773L41.7416 16.7677C41.6238 16.4141 41.4833 15.9693 41.3201 15.4332C41.1569 14.897 40.9821 14.3056 40.7958 13.6589C40.6095 13.0122 40.4236 12.3423 40.2382 11.6493C40.0528 10.9564 39.8751 10.2783 39.7051 9.61518H39.9857C39.9929 10.1793 40.0044 10.7932 40.0204 11.4572C40.0363 12.1211 40.0524 12.7856 40.0687 13.4507C40.0849 14.1158 40.1001 14.7371 40.1142 15.3146C40.1284 15.8921 40.1355 16.3765 40.1355 16.7677V25H36.5778ZM58.8565 25V11.8984H62.3709V25H58.8565ZM60.6128 10.1906C60.0835 10.1906 59.6301 10.0137 59.2524 9.65984C58.8748 9.30602 58.6859 8.88143 58.6859 8.38608C58.6859 7.88061 58.8748 7.45303 59.2524 7.10334C59.6301 6.75365 60.0835 6.5788 60.6128 6.5788C61.1444 6.5788 61.5993 6.75342 61.9776 7.10266C62.3558 7.4519 62.545 7.8796 62.545 8.38574C62.545 8.88177 62.3558 9.30658 61.9776 9.66018C61.5993 10.0138 61.1444 10.1906 60.6128 10.1906ZM71.2177 25.2559C69.9037 25.2559 68.7677 24.9736 67.8099 24.409C66.8521 23.8444 66.1137 23.0553 65.5947 22.0418C65.0757 21.0283 64.8162 19.8497 64.8162 18.5059C64.8162 17.1514 65.0757 15.9665 65.5947 14.9512C66.1137 13.9359 66.8521 13.1459 67.8099 12.5813C68.7677 12.0167 69.9037 11.7344 71.2177 11.7344C71.9982 11.7344 72.7161 11.8354 73.3714 12.0374C74.0268 12.2395 74.6079 12.5285 75.115 12.9046C75.622 13.2807 76.0393 13.7377 76.3668 14.2755C76.6943 14.8133 76.9204 15.418 77.0453 16.0896L73.7775 16.7018C73.7049 16.3616 73.5952 16.0562 73.4484 15.7855C73.3016 15.5148 73.1222 15.2833 72.9103 15.091C72.6983 14.8988 72.4538 14.7523 72.1767 14.6517C71.8996 14.5511 71.5926 14.5008 71.2557 14.5008C70.6296 14.5008 70.105 14.6692 69.6817 15.0059C69.2584 15.3427 68.9386 15.8105 68.7221 16.4092C68.5056 17.008 68.3974 17.7027 68.3974 18.4933C68.3974 19.2725 68.5056 19.9627 68.7221 20.5638C68.9386 21.165 69.2584 21.6362 69.6817 21.9776C70.105 22.3189 70.6296 22.4895 71.2557 22.4895C71.5962 22.4895 71.9068 22.4373 72.1875 22.3327C72.4682 22.2282 72.7173 22.077 72.935 21.879C73.1526 21.681 73.3349 21.4399 73.4816 21.1557C73.6284 20.8715 73.7361 20.5536 73.8045 20.2021L77.0668 20.8079C76.9456 21.4993 76.7203 22.1179 76.391 22.6635C76.0617 23.2091 75.6437 23.6757 75.137 24.0632C74.6303 24.4507 74.0464 24.7464 73.3854 24.9502C72.7244 25.154 72.0018 25.2559 71.2177 25.2559ZM79.4815 25V11.8984H82.8876V14.1799H83.0282C83.2662 13.3724 83.6683 12.7611 84.2345 12.3461C84.8008 11.9311 85.4513 11.7236 86.1861 11.7236C86.3677 11.7236 86.5628 11.7338 86.7713 11.7543C86.9798 11.7748 87.1634 11.8037 87.3222 11.841V14.981C87.1669 14.9274 86.9399 14.8839 86.6414 14.8506C86.3429 14.8172 86.0636 14.8005 85.8034 14.8005C85.267 14.8005 84.7856 14.9166 84.3591 15.1488C83.9326 15.381 83.5988 15.7024 83.3576 16.113C83.1164 16.5237 82.9959 17.0005 82.9959 17.5436V25H79.4815ZM94.5327 25.2559C93.2186 25.2559 92.0816 24.9736 91.1217 24.409C90.1617 23.8444 89.4223 23.0553 88.9033 22.0418C88.3843 21.0283 88.1248 19.8497 88.1248 18.5059C88.1248 17.1514 88.3843 15.9665 88.9033 14.9512C89.4223 13.9359 90.1617 13.1459 91.1217 12.5813C92.0816 12.0167 93.2186 11.7344 94.5327 11.7344C95.8503 11.7344 96.9879 12.0167 97.9454 12.5813C98.9029 13.1459 99.6412 13.9359 100.16 14.9512C100.679 15.9665 100.939 17.1514 100.939 18.5059C100.939 19.8497 100.679 21.0283 100.16 22.0418C99.6412 23.0553 98.9029 23.8444 97.9454 24.409C96.9879 24.9736 95.8503 25.2559 94.5327 25.2559ZM94.5327 22.4895C95.1581 22.4895 95.6811 22.3157 96.1016 21.9681C96.5222 21.6204 96.8375 21.145 97.0477 20.5417C97.2578 19.9384 97.3629 19.2556 97.3629 18.4933C97.3629 17.7231 97.2578 17.0378 97.0477 16.4373C96.8375 15.8367 96.5222 15.3638 96.1016 15.0186C95.6811 14.6734 95.1581 14.5008 94.5327 14.5008C93.9066 14.5008 93.384 14.6734 92.965 15.0186C92.5459 15.3638 92.2313 15.8358 92.0212 16.4346C91.811 17.0333 91.7059 17.7195 91.7059 18.4933C91.7059 19.2556 91.811 19.9384 92.0212 20.5417C92.2313 21.145 92.5459 21.6204 92.965 21.9681C93.384 22.3157 93.9066 22.4895 94.5327 22.4895ZM108.594 25.2559C107.539 25.2559 106.606 25.105 105.792 24.8032C104.979 24.5014 104.316 24.0642 103.801 23.4917C103.287 22.9191 102.954 22.2283 102.802 21.4192L106.078 20.8564C106.248 21.4655 106.548 21.9222 106.977 22.2265C107.406 22.5308 107.979 22.6829 108.697 22.6829C109.367 22.6829 109.896 22.5551 110.285 22.2995C110.674 22.0439 110.868 21.7204 110.868 21.329C110.868 20.9855 110.73 20.7046 110.454 20.4861C110.177 20.2676 109.751 20.0989 109.174 19.9799L106.918 19.5149C105.655 19.2548 104.711 18.815 104.086 18.1957C103.462 17.5763 103.15 16.7761 103.15 15.7952C103.15 14.9566 103.379 14.2343 103.836 13.6285C104.294 13.0226 104.935 12.5555 105.758 12.227C106.581 11.8986 107.544 11.7344 108.647 11.7344C109.684 11.7344 110.582 11.8776 111.34 12.164C112.097 12.4504 112.709 12.8542 113.175 13.3754C113.642 13.8965 113.956 14.5142 114.117 15.2285L110.998 15.7776C110.861 15.33 110.603 14.9643 110.225 14.6806C109.847 14.397 109.34 14.2551 108.703 14.2551C108.124 14.2551 107.639 14.3768 107.248 14.6202C106.858 14.8635 106.662 15.1848 106.662 15.584C106.662 15.9123 106.788 16.1902 107.041 16.4178C107.293 16.6453 107.728 16.8237 108.346 16.9527L110.7 17.4215C111.968 17.6774 112.911 18.0971 113.53 18.6806C114.149 19.2642 114.458 20.0241 114.458 20.9605C114.458 21.819 114.208 22.5702 113.706 23.2143C113.205 23.8584 112.514 24.3596 111.634 24.7182C110.753 25.0767 109.74 25.2559 108.594 25.2559ZM122.693 25.2559C121.379 25.2559 120.242 24.9736 119.282 24.409C118.322 23.8444 117.582 23.0553 117.063 22.0418C116.544 21.0283 116.285 19.8497 116.285 18.5059C116.285 17.1514 116.544 15.9665 117.063 14.9512C117.582 13.9359 118.322 13.1459 119.282 12.5813C120.242 12.0167 121.379 11.7344 122.693 11.7344C124.01 11.7344 125.148 12.0167 126.106 12.5813C127.063 13.1459 127.801 13.9359 128.32 14.9512C128.839 15.9665 129.099 17.1514 129.099 18.5059C129.099 19.8497 128.839 21.0283 128.32 22.0418C127.801 23.0553 127.063 23.8444 126.106 24.409C125.148 24.9736 124.01 25.2559 122.693 25.2559ZM122.693 22.4895C123.318 22.4895 123.841 22.3157 124.262 21.9681C124.682 21.6204 124.998 21.145 125.208 20.5417C125.418 19.9384 125.523 19.2556 125.523 18.4933C125.523 17.7231 125.418 17.0378 125.208 16.4373C124.998 15.8367 124.682 15.3638 124.262 15.0186C123.841 14.6734 123.318 14.5008 122.693 14.5008C122.067 14.5008 121.544 14.6734 121.125 15.0186C120.706 15.3638 120.391 15.8358 120.181 16.4346C119.971 17.0333 119.866 17.7195 119.866 18.4933C119.866 19.2556 119.971 19.9384 120.181 20.5417C120.391 21.145 120.706 21.6204 121.125 21.9681C121.544 22.3157 122.067 22.4895 122.693 22.4895ZM138.838 11.8984V14.5765H130.285V11.8984H138.838ZM132.597 25V10.8928C132.597 9.96199 132.783 9.18784 133.153 8.57034C133.523 7.95283 134.029 7.48985 134.671 7.18141C135.313 6.87297 136.037 6.71875 136.843 6.71875C137.398 6.71875 137.904 6.76293 138.36 6.85129C138.817 6.93965 139.153 7.01688 139.369 7.08297L138.732 9.73569C138.589 9.69241 138.417 9.65155 138.216 9.61311C138.015 9.57467 137.797 9.55545 137.564 9.55545C137.029 9.55545 136.651 9.68244 136.431 9.93642C136.21 10.1904 136.099 10.5473 136.099 11.0071V25H132.597ZM146.66 11.8984V14.5765H138.887V11.8984H146.66ZM140.691 8.78125H144.205V21.1649C144.205 21.5821 144.298 21.8896 144.484 22.0874C144.669 22.2852 144.974 22.3841 145.398 22.3841C145.535 22.3841 145.724 22.3674 145.964 22.334C146.205 22.3007 146.388 22.2684 146.514 22.2371L147.017 24.8727C146.625 24.9888 146.237 25.0696 145.852 25.115C145.467 25.1604 145.098 25.183 144.744 25.183C143.43 25.183 142.426 24.8642 141.732 24.2264C141.038 23.5887 140.691 22.6714 140.691 21.4745V8.78125Z" fill="#FAFAFA"/>
</svg>
