<svg width="220" height="128" viewBox="0 0 220 128" fill="none" xmlns="http://www.w3.org/2000/svg">
<g clip-path="url(#clip0_1240_1809)">
<rect width="220" height="128" rx="12" fill="#2C2832" fill-opacity="0.5"/>
<path d="M110 79C107.95 79 106.012 78.6063 104.188 77.8188C102.363 77.0312 100.769 75.9562 99.4062 74.5938C98.0438 73.2313 96.9688 71.6375 96.1812 69.8125C95.3937 67.9875 95 66.05 95 64C95 61.925 95.4062 59.975 96.2188 58.15C97.0312 56.325 98.1313 54.7375 99.5188 53.3875C100.906 52.0375 102.525 50.9688 104.375 50.1812C106.225 49.3937 108.2 49 110.3 49C112.3 49 114.188 49.3438 115.962 50.0312C117.737 50.7188 119.294 51.6687 120.631 52.8812C121.969 54.0938 123.031 55.5313 123.819 57.1938C124.606 58.8563 125 60.65 125 62.575C125 65.45 124.125 67.6562 122.375 69.1938C120.625 70.7313 118.5 71.5 116 71.5H113.225C113 71.5 112.844 71.5625 112.756 71.6875C112.669 71.8125 112.625 71.95 112.625 72.1C112.625 72.4 112.812 72.8312 113.188 73.3937C113.562 73.9562 113.75 74.6 113.75 75.325C113.75 76.575 113.406 77.5 112.719 78.1C112.031 78.7 111.125 79 110 79ZM101.75 65.5C102.4 65.5 102.938 65.2875 103.363 64.8625C103.788 64.4375 104 63.9 104 63.25C104 62.6 103.788 62.0625 103.363 61.6375C102.938 61.2125 102.4 61 101.75 61C101.1 61 100.562 61.2125 100.137 61.6375C99.7125 62.0625 99.5 62.6 99.5 63.25C99.5 63.9 99.7125 64.4375 100.137 64.8625C100.562 65.2875 101.1 65.5 101.75 65.5ZM106.25 59.5C106.9 59.5 107.438 59.2875 107.863 58.8625C108.288 58.4375 108.5 57.9 108.5 57.25C108.5 56.6 108.288 56.0625 107.863 55.6375C107.438 55.2125 106.9 55 106.25 55C105.6 55 105.062 55.2125 104.637 55.6375C104.212 56.0625 104 56.6 104 57.25C104 57.9 104.212 58.4375 104.637 58.8625C105.062 59.2875 105.6 59.5 106.25 59.5ZM113.75 59.5C114.4 59.5 114.938 59.2875 115.362 58.8625C115.787 58.4375 116 57.9 116 57.25C116 56.6 115.787 56.0625 115.362 55.6375C114.938 55.2125 114.4 55 113.75 55C113.1 55 112.562 55.2125 112.138 55.6375C111.713 56.0625 111.5 56.6 111.5 57.25C111.5 57.9 111.713 58.4375 112.138 58.8625C112.562 59.2875 113.1 59.5 113.75 59.5ZM118.25 65.5C118.9 65.5 119.438 65.2875 119.862 64.8625C120.287 64.4375 120.5 63.9 120.5 63.25C120.5 62.6 120.287 62.0625 119.862 61.6375C119.438 61.2125 118.9 61 118.25 61C117.6 61 117.062 61.2125 116.638 61.6375C116.213 62.0625 116 62.6 116 63.25C116 63.9 116.213 64.4375 116.638 64.8625C117.062 65.2875 117.6 65.5 118.25 65.5ZM110 76C110.225 76 110.406 75.9375 110.544 75.8125C110.681 75.6875 110.75 75.525 110.75 75.325C110.75 74.975 110.562 74.5625 110.188 74.0875C109.812 73.6125 109.625 72.9 109.625 71.95C109.625 70.9 109.987 70.0625 110.712 69.4375C111.438 68.8125 112.325 68.5 113.375 68.5H116C117.65 68.5 119.062 68.0187 120.237 67.0562C121.412 66.0938 122 64.6 122 62.575C122 59.55 120.844 57.0312 118.531 55.0188C116.219 53.0063 113.475 52 110.3 52C106.9 52 104 53.1625 101.6 55.4875C99.2 57.8125 98 60.65 98 64C98 67.325 99.1687 70.1562 101.506 72.4937C103.844 74.8312 106.675 76 110 76Z" fill="#FFB869"/>
<rect x="158" y="66" width="76" height="76" rx="38" stroke="white" stroke-opacity="0.1" stroke-width="4"/>
</g>
<defs>
<clipPath id="clip0_1240_1809">
<rect width="220" height="128" rx="12" fill="white"/>
</clipPath>
</defs>
</svg>
