<svg width="220" height="128" viewBox="0 0 220 128" fill="none" xmlns="http://www.w3.org/2000/svg">
<g clip-path="url(#clip0_1240_1779)">
<rect width="220" height="128" rx="12" fill="#2C2832" fill-opacity="0.5"/>
<path d="M100.24 79V72.55C98.8152 71.25 97.709 69.7312 96.9215 67.9937C96.134 66.2563 95.7402 64.425 95.7402 62.5C95.7402 58.75 97.0527 55.5625 99.6777 52.9375C102.303 50.3125 105.49 49 109.24 49C112.365 49 115.134 49.9187 117.546 51.7562C119.959 53.5938 121.528 55.9875 122.253 58.9375L124.203 66.625C124.328 67.1 124.24 67.5312 123.94 67.9188C123.64 68.3063 123.24 68.5 122.74 68.5H119.74V73C119.74 73.825 119.446 74.5312 118.859 75.1187C118.271 75.7062 117.565 76 116.74 76H113.74V79H110.74V73H116.74V65.5H120.79L119.365 59.6875C118.79 57.4125 117.565 55.5625 115.69 54.1375C113.815 52.7125 111.665 52 109.24 52C106.34 52 103.865 53.0125 101.815 55.0375C99.7652 57.0625 98.7402 59.525 98.7402 62.425C98.7402 63.925 99.0465 65.35 99.659 66.7C100.271 68.05 101.14 69.25 102.265 70.3L103.24 71.2V79H100.24ZM107.74 68.5H110.74L110.965 66.625C111.165 66.55 111.346 66.4625 111.509 66.3625C111.671 66.2625 111.815 66.15 111.94 66.025L113.665 66.775L115.165 64.225L113.665 63.1C113.715 62.9 113.74 62.7 113.74 62.5C113.74 62.3 113.715 62.1 113.665 61.9L115.165 60.775L113.665 58.225L111.94 58.975C111.815 58.85 111.671 58.7375 111.509 58.6375C111.346 58.5375 111.165 58.45 110.965 58.375L110.74 56.5H107.74L107.515 58.375C107.315 58.45 107.134 58.5375 106.971 58.6375C106.809 58.7375 106.665 58.85 106.54 58.975L104.815 58.225L103.315 60.775L104.815 61.9C104.765 62.1 104.74 62.3 104.74 62.5C104.74 62.7 104.765 62.9 104.815 63.1L103.315 64.225L104.815 66.775L106.54 66.025C106.665 66.15 106.809 66.2625 106.971 66.3625C107.134 66.4625 107.315 66.55 107.515 66.625L107.74 68.5ZM109.24 64.75C108.615 64.75 108.084 64.5312 107.646 64.0938C107.209 63.6562 106.99 63.125 106.99 62.5C106.99 61.875 107.209 61.3438 107.646 60.9062C108.084 60.4688 108.615 60.25 109.24 60.25C109.865 60.25 110.396 60.4688 110.834 60.9062C111.271 61.3438 111.49 61.875 111.49 62.5C111.49 63.125 111.271 63.6562 110.834 64.0938C110.396 64.5312 109.865 64.75 109.24 64.75Z" fill="#D0BCFF"/>
<g opacity="0.1" clip-path="url(#clip1_1240_1779)">
<path d="M0 102.4L44 76.7996L88 89.5996L132 51.1996L176 63.9996L220 25.5996" stroke="white" stroke-width="3.48"/>
</g>
</g>
<defs>
<clipPath id="clip0_1240_1779">
<rect width="220" height="128" rx="12" fill="white"/>
</clipPath>
<clipPath id="clip1_1240_1779">
<rect width="220" height="128" fill="white"/>
</clipPath>
</defs>
</svg>
